<svg width="225" height="36" viewBox="0 0 225 36" fill="none" xmlns="http://www.w3.org/2000/svg">
<path d="M214.206 35.167C212.13 35.167 210.293 34.7206 208.695 33.828C207.096 32.9147 205.84 31.6484 204.927 30.0292C204.014 28.3893 203.557 26.4899 203.557 24.3311V10.8173C203.557 8.67923 204.014 6.80059 204.927 5.18144C205.84 3.56228 207.096 2.3064 208.695 1.41379C210.293 0.500418 212.13 0.0437317 214.206 0.0437317C217.32 0.0437317 219.852 1.04014 221.804 3.03294C223.755 5.00499 224.73 7.59979 224.73 10.8173V17.8544H206.11V14.4293H221.305V10.8173C221.305 8.59619 220.662 6.82135 219.375 5.49282C218.109 4.14352 216.386 3.46887 214.206 3.46887C212.026 3.46887 210.272 4.14352 208.944 5.49282C207.636 6.82135 206.982 8.59619 206.982 10.8173V24.3311C206.982 26.5315 207.636 28.3167 208.944 29.6867C210.272 31.0568 212.026 31.7418 214.206 31.7418C216.386 31.7418 218.109 31.0568 219.375 29.6867C220.662 28.3167 221.305 26.5315 221.305 24.3311V23.7083H224.73V24.3311C224.73 27.5694 223.755 30.1849 221.804 32.1777C219.852 34.1706 217.32 35.167 214.206 35.167Z" fill="#1E1E1E"/>
<path d="M186.881 35.167C183.746 35.167 181.203 34.2847 179.252 32.5203C177.321 30.735 176.356 28.379 176.356 25.452V24.2065H179.781V25.5143C179.781 27.3825 180.435 28.8875 181.743 30.0292C183.051 31.171 184.753 31.7418 186.85 31.7418C188.863 31.7418 190.472 31.1813 191.676 30.0604C192.88 28.9187 193.482 27.2788 193.482 25.1406C193.482 23.6876 193.202 22.5977 192.641 21.8712C192.081 21.1239 191.292 20.5738 190.275 20.2209C189.258 19.868 188.064 19.5566 186.694 19.2868C184.68 18.8508 182.895 18.3838 181.338 17.8856C179.781 17.3666 178.557 16.5467 177.664 15.4257C176.792 14.284 176.356 12.5818 176.356 10.3191C176.356 6.97704 177.29 4.43413 179.159 2.69043C181.048 0.925963 183.518 0.0437317 186.569 0.0437317C189.725 0.0437317 192.236 0.925963 194.105 2.69043C195.973 4.45489 196.907 6.79022 196.907 9.69639V10.8796H193.482V9.69639C193.482 7.78662 192.859 6.27125 191.614 5.1503C190.368 4.02935 188.697 3.46887 186.6 3.46887C184.566 3.46887 182.916 4.03972 181.65 5.18144C180.404 6.32315 179.781 7.97344 179.781 10.1323C179.781 11.5646 180.062 12.6545 180.622 13.4018C181.203 14.1283 182.013 14.6576 183.051 14.9898C184.089 15.3219 185.303 15.6333 186.694 15.9239C188.687 16.3183 190.451 16.7854 191.987 17.3251C193.523 17.8648 194.727 18.7159 195.599 19.8784C196.471 21.0201 196.907 22.7223 196.907 24.985C196.907 28.2648 195.994 30.7869 194.167 32.5514C192.34 34.2951 189.911 35.167 186.881 35.167Z" fill="#1E1E1E"/>
<path d="M165.266 35.1669V11.4478H168.691V35.1669H165.266ZM165.266 7.20295V0.0437315H168.691V7.20295H165.266Z" fill="#1E1E1E"/>
<path d="M130.288 35.1669L123.438 0.0437317H126.987L132.53 29.9219L132.094 29.875L139.069 0.0437317H142.369L149.344 29.875L148.908 29.9219L154.451 0.0437317H158L151.15 35.1669H147.538L140.501 6.31908H141.062L133.9 35.1669H130.288Z" fill="#1E1E1E"/>
<path d="M116.655 35.1669L106.317 15.82L102.144 21.3384V15.6901L114.662 0.0437317H118.398L108.559 12.8984L120.391 35.1669H116.655ZM99.342 35.1669L99.342 0.0437326H102.767V35.1669H99.342Z" fill="#1E1E1E"/>
<path d="M80.7155 35.167C78.6396 35.167 76.8025 34.7206 75.2041 33.828C73.6057 32.9147 72.3498 31.6484 71.4365 30.0292C70.5231 28.3893 70.0664 26.4899 70.0664 24.3311V10.8173C70.0664 8.67923 70.5231 6.80059 71.4365 5.18144C72.3498 3.56228 73.6057 2.3064 75.2041 1.41379C76.8025 0.500418 78.6396 0.0437317 80.7155 0.0437317C83.8292 0.0437317 86.3618 1.04014 88.313 3.03294C90.2643 5.00499 91.24 7.59979 91.24 10.8173V17.8544H72.6197V14.4293H87.8148V10.8173C87.8148 8.59619 87.1713 6.82135 85.8843 5.49282C84.6181 4.14352 82.8951 3.46887 80.7155 3.46887C78.5358 3.46887 76.7817 4.14352 75.4532 5.49282C74.1454 6.82135 73.4915 8.59619 73.4915 10.8173V24.3311C73.4915 26.5315 74.1454 28.3167 75.4532 29.6867C76.7817 31.0568 78.5358 31.7418 80.7155 31.7418C82.8951 31.7418 84.6181 31.0568 85.8843 29.6867C87.1713 28.3167 87.8148 26.5315 87.8148 24.3311V23.7083H91.24V24.3311C91.24 27.5694 90.2643 30.1849 88.313 32.1777C86.3618 34.1706 83.8292 35.167 80.7155 35.167Z" fill="#1E1E1E"/>
<path d="M52.4362 35.167C50.3603 35.167 48.5232 34.7206 46.9248 33.828C45.3264 32.9147 44.0705 31.6484 43.1572 30.0292C42.2438 28.3893 41.7871 26.4899 41.7871 24.3311V10.8173C41.7871 8.67923 42.2438 6.80059 43.1572 5.18144C44.0705 3.56228 45.3264 2.3064 46.9248 1.41379C48.5232 0.500418 50.3603 0.0437317 52.4362 0.0437317C55.5499 0.0437317 58.0825 1.04014 60.0338 3.03294C61.985 5.00499 62.9607 7.59979 62.9607 10.8173V17.8544H44.3404V14.4293H59.5355V10.8173C59.5355 8.59619 58.892 6.82135 57.605 5.49282C56.3388 4.14352 54.6158 3.46887 52.4362 3.46887C50.2565 3.46887 48.5025 4.14352 47.1739 5.49282C45.8661 6.82135 45.2122 8.59619 45.2122 10.8173V24.3311C45.2122 26.5315 45.8661 28.3167 47.1739 29.6867C48.5025 31.0568 50.2565 31.7418 52.4362 31.7418C54.6158 31.7418 56.3388 31.0568 57.605 29.6867C58.892 28.3167 59.5355 26.5315 59.5355 24.3311V23.7083H62.9607V24.3311C62.9607 27.5694 61.985 30.1849 60.0338 32.1777C58.0825 34.1706 55.5499 35.167 52.4362 35.167Z" fill="#1E1E1E"/>
<path d="M7.80535 35.1669L0.955078 0.0437317H4.50477L10.0473 29.9219L9.61133 29.875L16.5862 0.0437317H19.8867L26.8616 29.875L26.4256 29.9219L31.9681 0.0437317H35.5178L28.6675 35.1669H25.0556L18.0185 6.31908H18.579L11.4173 35.1669H7.80535Z" fill="#1E1E1E"/>
</svg>
